  0
SECTION
  2
HEADER
  9
$ANGBASE
  50
0.0
  9
$ANGDIR
  70
1
  9
$MEASUREMENT
  70
1
  0
ENDSEC
  0
SECTION
  2
TABLES
  0
TABLE
  2
LTYPE
  70
4
  0
LTYPE
  5
40F
  2
CONTINUOUS
  70
0
  3
Solid line
  72
65
  73
0
  40
0.0
  0
LTYPE
  5
410
  2
DASHDOT
 70
0
  3
Dash Dot ____ _ ____ _
 72
65
 73
4
 40
2.0
 49
1.25
 49
-0.25
 49
0.25
 49
-0.25
  0
LTYPE
  5
411
  2
DASHED
 70
0
  3
Dashed __ __ __ __ __
 72
65
 73
2
 40
0.75
 49
0.5
 49
-0.25
  0
LTYPE
  5
43B
  2
DOTTED
 70
0
  3
Dotted .  .  .  .
 72
65
 73
2
 40
0.2
 49
0.0
 49
-0.2
  0
ENDTAB
  0
TABLE
  2
STYLE
  70
4
  0
STYLE
  2
KICAD
  70
0
  40
0
  41
1
  42
1
  50
0
  71
0
  3
isocp.shx
  0
STYLE
  2
KICADB
  70
0
  40
0
  41
1
  42
1
  50
0
  71
0
  3
isocp.shx
  0
STYLE
  2
KICADI
  70
0
  40
0
  41
1
  42
1
  50
15
  71
0
  3
isocp.shx
  0
STYLE
  2
KICADBI
  70
0
  40
0
  41
1
  42
1
  50
15
  71
0
  3
isocp.shx
  0
ENDTAB
  0
TABLE
  2
LAYER
  70
1
  0
LAYER
  2
BLACK
  70
0
  62
7
  6
CONTINUOUS
  0
ENDTAB
  0
ENDSEC
  0
SECTION
  2
ENTITIES
0
LINE
8
BLACK
6
CONTINUOUS
10
262.3999999999999773
20
120.1099999999999994
11
266.
21
120.1099999999999994
0
LINE
8
BLACK
6
CONTINUOUS
10
266.
20
120.1099999999999994
11
266.
21
110.9899999999999949
0
LINE
8
BLACK
6
CONTINUOUS
10
266.
20
110.9899999999999949
11
262.3999999999999773
21
110.9899999999999949
0
LINE
8
BLACK
6
CONTINUOUS
10
262.3999999999999773
20
110.9899999999999949
11
262.3999999999999773
21
120.1099999999999994
0
LINE
8
BLACK
6
CONTINUOUS
10
119.4899999999999949
20
89.3999999999999915
11
133.4799999999999898
21
89.3999999999999915
0
LINE
8
BLACK
6
CONTINUOUS
10
133.4799999999999898
20
89.3999999999999915
11
133.4799999999999898
21
75.4099999999999966
0
LINE
8
BLACK
6
CONTINUOUS
10
133.4799999999999898
20
75.4099999999999966
11
119.4899999999999949
21
75.4099999999999966
0
LINE
8
BLACK
6
CONTINUOUS
10
119.4899999999999949
20
75.4099999999999966
11
119.4899999999999949
21
89.3999999999999915
0
LINE
8
BLACK
6
CONTINUOUS
10
138.539999999999992
20
127.5099999999999909
11
152.5300000000000011
21
127.5099999999999909
0
LINE
8
BLACK
6
CONTINUOUS
10
152.5300000000000011
20
127.5099999999999909
11
152.5300000000000011
21
113.519999999999996
0
LINE
8
BLACK
6
CONTINUOUS
10
152.5300000000000011
20
113.519999999999996
11
138.539999999999992
21
113.519999999999996
0
LINE
8
BLACK
6
CONTINUOUS
10
138.539999999999992
20
113.519999999999996
11
138.539999999999992
21
127.5099999999999909
0
LINE
8
BLACK
6
CONTINUOUS
10
213.2800000000000011
20
147.8400000000000034
11
233.0900000000000034
21
147.8400000000000034
0
LINE
8
BLACK
6
CONTINUOUS
10
233.0900000000000034
20
147.8400000000000034
11
233.0900000000000034
21
128.6399999999999864
0
LINE
8
BLACK
6
CONTINUOUS
10
233.0900000000000034
20
128.6399999999999864
11
213.2800000000000011
21
128.6399999999999864
0
LINE
8
BLACK
6
CONTINUOUS
10
213.2800000000000011
20
128.6399999999999864
11
213.2800000000000011
21
147.8400000000000034
0
LINE
8
BLACK
6
CONTINUOUS
10
307.3299999999999841
20
127.4699999999999989
11
321.3199999999999932
21
127.4699999999999989
0
LINE
8
BLACK
6
CONTINUOUS
10
321.3199999999999932
20
127.4699999999999989
11
321.3199999999999932
21
113.4799999999999898
0
LINE
8
BLACK
6
CONTINUOUS
10
321.3199999999999932
20
113.4799999999999898
11
307.3299999999999841
21
113.4799999999999898
0
LINE
8
BLACK
6
CONTINUOUS
10
307.3299999999999841
20
113.4799999999999898
11
307.3299999999999841
21
127.4699999999999989
0
LINE
8
BLACK
6
CONTINUOUS
10
138.539999999999992
20
146.5600000000000023
11
152.5300000000000011
21
146.5600000000000023
0
LINE
8
BLACK
6
CONTINUOUS
10
152.5300000000000011
20
146.5600000000000023
11
152.5300000000000011
21
132.5699999999999932
0
LINE
8
BLACK
6
CONTINUOUS
10
152.5300000000000011
20
132.5699999999999932
11
138.539999999999992
21
132.5699999999999932
0
LINE
8
BLACK
6
CONTINUOUS
10
138.539999999999992
20
132.5699999999999932
11
138.539999999999992
21
146.5600000000000023
0
LINE
8
BLACK
6
CONTINUOUS
10
157.5799999999999841
20
146.5499999999999829
11
171.5699999999999932
21
146.5499999999999829
0
LINE
8
BLACK
6
CONTINUOUS
10
171.5699999999999932
20
146.5499999999999829
11
171.5699999999999932
21
132.5600000000000023
0
LINE
8
BLACK
6
CONTINUOUS
10
171.5699999999999932
20
132.5600000000000023
11
157.5799999999999841
21
132.5600000000000023
0
LINE
8
BLACK
6
CONTINUOUS
10
157.5799999999999841
20
132.5600000000000023
11
157.5799999999999841
21
146.5499999999999829
0
LINE
8
BLACK
6
CONTINUOUS
10
157.5799999999999841
20
127.5
11
171.5699999999999932
21
127.5
0
LINE
8
BLACK
6
CONTINUOUS
10
171.5699999999999932
20
127.5
11
171.5699999999999932
21
113.5099999999999909
0
LINE
8
BLACK
6
CONTINUOUS
10
171.5699999999999932
20
113.5099999999999909
11
157.5799999999999841
21
113.5099999999999909
0
LINE
8
BLACK
6
CONTINUOUS
10
157.5799999999999841
20
113.5099999999999909
11
157.5799999999999841
21
127.5
0
LINE
8
BLACK
6
CONTINUOUS
10
269.75
20
119.9299999999999926
11
283.3799999999999955
21
119.9299999999999926
0
LINE
8
BLACK
6
CONTINUOUS
10
283.3799999999999955
20
119.9299999999999926
11
283.3799999999999955
21
116.8799999999999955
0
LINE
8
BLACK
6
CONTINUOUS
10
283.3799999999999955
20
116.8799999999999955
11
269.75
21
116.8799999999999955
0
LINE
8
BLACK
6
CONTINUOUS
10
269.75
20
116.8799999999999955
11
269.75
21
119.9299999999999926
0
LINE
8
BLACK
6
CONTINUOUS
10
288.2799999999999727
20
127.4599999999999937
11
302.2699999999999818
21
127.4599999999999937
0
LINE
8
BLACK
6
CONTINUOUS
10
302.2699999999999818
20
127.4599999999999937
11
302.2699999999999818
21
113.4699999999999989
0
LINE
8
BLACK
6
CONTINUOUS
10
302.2699999999999818
20
113.4699999999999989
11
288.2799999999999727
21
113.4699999999999989
0
LINE
8
BLACK
6
CONTINUOUS
10
288.2799999999999727
20
113.4699999999999989
11
288.2799999999999727
21
127.4599999999999937
0
LINE
8
BLACK
6
CONTINUOUS
10
138.539999999999992
20
108.4599999999999937
11
152.5300000000000011
21
108.4599999999999937
0
LINE
8
BLACK
6
CONTINUOUS
10
152.5300000000000011
20
108.4599999999999937
11
152.5300000000000011
21
94.4699999999999989
0
LINE
8
BLACK
6
CONTINUOUS
10
152.5300000000000011
20
94.4699999999999989
11
138.539999999999992
21
94.4699999999999989
0
LINE
8
BLACK
6
CONTINUOUS
10
138.539999999999992
20
94.4699999999999989
11
138.539999999999992
21
108.4599999999999937
0
LINE
8
BLACK
6
CONTINUOUS
10
195.6899999999999977
20
146.5600000000000023
11
209.6799999999999784
21
146.5600000000000023
0
LINE
8
BLACK
6
CONTINUOUS
10
209.6799999999999784
20
146.5600000000000023
11
209.6799999999999784
21
132.5699999999999932
0
LINE
8
BLACK
6
CONTINUOUS
10
209.6799999999999784
20
132.5699999999999932
11
195.6899999999999977
21
132.5699999999999932
0
LINE
8
BLACK
6
CONTINUOUS
10
195.6899999999999977
20
132.5699999999999932
11
195.6899999999999977
21
146.5600000000000023
0
CIRCLE
8
BLACK
10
304.7899999999999636
20
91.8900000000000006
40
1.0999999999999999
0
LINE
8
BLACK
6
CONTINUOUS
10
364.4799999999999613
20
108.3999999999999915
11
378.4699999999999704
21
108.3999999999999915
0
LINE
8
BLACK
6
CONTINUOUS
10
378.4699999999999704
20
108.3999999999999915
11
378.4699999999999704
21
94.4099999999999966
0
LINE
8
BLACK
6
CONTINUOUS
10
378.4699999999999704
20
94.4099999999999966
11
364.4799999999999613
21
94.4099999999999966
0
LINE
8
BLACK
6
CONTINUOUS
10
364.4799999999999613
20
94.4099999999999966
11
364.4799999999999613
21
108.3999999999999915
0
CIRCLE
8
BLACK
10
342.8999999999999773
20
129.9899999999999807
40
1.0999999999999999
0
LINE
8
BLACK
6
CONTINUOUS
10
195.6899999999999977
20
89.4099999999999966
11
209.6799999999999784
21
89.4099999999999966
0
LINE
8
BLACK
6
CONTINUOUS
10
209.6799999999999784
20
89.4099999999999966
11
209.6799999999999784
21
75.4200000000000017
0
LINE
8
BLACK
6
CONTINUOUS
10
209.6799999999999784
20
75.4200000000000017
11
195.6899999999999977
21
75.4200000000000017
0
LINE
8
BLACK
6
CONTINUOUS
10
195.6899999999999977
20
75.4200000000000017
11
195.6899999999999977
21
89.4099999999999966
0
LINE
8
BLACK
6
CONTINUOUS
10
264.2799999999999727
20
98.4599999999999937
11
283.0699999999999932
21
98.4599999999999937
0
LINE
8
BLACK
6
CONTINUOUS
10
283.0699999999999932
20
98.4599999999999937
11
283.0699999999999932
21
94.8900000000000006
0
LINE
8
BLACK
6
CONTINUOUS
10
283.0699999999999932
20
94.8900000000000006
11
264.2799999999999727
21
94.8900000000000006
0
LINE
8
BLACK
6
CONTINUOUS
10
264.2799999999999727
20
94.8900000000000006
11
264.2799999999999727
21
98.4599999999999937
0
LINE
8
BLACK
6
CONTINUOUS
10
307.3299999999999841
20
146.5199999999999818
11
321.3199999999999932
21
146.5199999999999818
0
LINE
8
BLACK
6
CONTINUOUS
10
321.3199999999999932
20
146.5199999999999818
11
321.3199999999999932
21
132.5300000000000011
0
LINE
8
BLACK
6
CONTINUOUS
10
321.3199999999999932
20
132.5300000000000011
11
307.3299999999999841
21
132.5300000000000011
0
LINE
8
BLACK
6
CONTINUOUS
10
307.3299999999999841
20
132.5300000000000011
11
307.3299999999999841
21
146.5199999999999818
0
LINE
8
BLACK
6
CONTINUOUS
10
157.5799999999999841
20
89.3999999999999915
11
171.5699999999999932
21
89.3999999999999915
0
LINE
8
BLACK
6
CONTINUOUS
10
171.5699999999999932
20
89.3999999999999915
11
171.5699999999999932
21
75.4099999999999966
0
LINE
8
BLACK
6
CONTINUOUS
10
171.5699999999999932
20
75.4099999999999966
11
157.5799999999999841
21
75.4099999999999966
0
LINE
8
BLACK
6
CONTINUOUS
10
157.5799999999999841
20
75.4099999999999966
11
157.5799999999999841
21
89.3999999999999915
0
LINE
8
BLACK
6
CONTINUOUS
10
326.3899999999999864
20
146.5
11
340.3799999999999955
21
146.5
0
LINE
8
BLACK
6
CONTINUOUS
10
340.3799999999999955
20
146.5
11
340.3799999999999955
21
132.5099999999999909
0
LINE
8
BLACK
6
CONTINUOUS
10
340.3799999999999955
20
132.5099999999999909
11
326.3899999999999864
21
132.5099999999999909
0
LINE
8
BLACK
6
CONTINUOUS
10
326.3899999999999864
20
132.5099999999999909
11
326.3899999999999864
21
146.5
0
LINE
8
BLACK
6
CONTINUOUS
10
345.4300000000000068
20
89.3599999999999994
11
359.4199999999999591
21
89.3599999999999994
0
LINE
8
BLACK
6
CONTINUOUS
10
359.4199999999999591
20
89.3599999999999994
11
359.4199999999999591
21
75.3699999999999903
0
LINE
8
BLACK
6
CONTINUOUS
10
359.4199999999999591
20
75.3699999999999903
11
345.4300000000000068
21
75.3699999999999903
0
LINE
8
BLACK
6
CONTINUOUS
10
345.4300000000000068
20
75.3699999999999903
11
345.4300000000000068
21
89.3599999999999994
0
LINE
8
BLACK
6
CONTINUOUS
10
288.2799999999999727
20
89.3599999999999994
11
302.2699999999999818
21
89.3599999999999994
0
LINE
8
BLACK
6
CONTINUOUS
10
302.2699999999999818
20
89.3599999999999994
11
302.2699999999999818
21
75.3699999999999903
0
LINE
8
BLACK
6
CONTINUOUS
10
302.2699999999999818
20
75.3699999999999903
11
288.2799999999999727
21
75.3699999999999903
0
LINE
8
BLACK
6
CONTINUOUS
10
288.2799999999999727
20
75.3699999999999903
11
288.2799999999999727
21
89.3599999999999994
0
LINE
8
BLACK
6
CONTINUOUS
10
262.4099999999999682
20
149.6299999999999955
11
381.
21
149.6299999999999955
0
LINE
8
BLACK
6
CONTINUOUS
10
381.
20
149.6299999999999955
11
381.
21
72.8400000000000034
0
LINE
8
BLACK
6
CONTINUOUS
10
381.
20
72.8400000000000034
11
262.4099999999999682
21
72.8400000000000034
0
LINE
8
BLACK
6
CONTINUOUS
10
262.4099999999999682
20
72.8400000000000034
11
262.4099999999999682
21
149.6299999999999955
0
LINE
8
BLACK
6
CONTINUOUS
10
264.8700000000000045
20
147.789999999999992
11
284.6800000000000068
21
147.789999999999992
0
LINE
8
BLACK
6
CONTINUOUS
10
284.6800000000000068
20
147.789999999999992
11
284.6800000000000068
21
128.5900000000000034
0
LINE
8
BLACK
6
CONTINUOUS
10
284.6800000000000068
20
128.5900000000000034
11
264.8700000000000045
21
128.5900000000000034
0
LINE
8
BLACK
6
CONTINUOUS
10
264.8700000000000045
20
128.5900000000000034
11
264.8700000000000045
21
147.789999999999992
0
LINE
8
BLACK
6
CONTINUOUS
10
326.3899999999999864
20
127.4499999999999886
11
340.3799999999999955
21
127.4499999999999886
0
LINE
8
BLACK
6
CONTINUOUS
10
340.3799999999999955
20
127.4499999999999886
11
340.3799999999999955
21
113.4599999999999937
0
LINE
8
BLACK
6
CONTINUOUS
10
340.3799999999999955
20
113.4599999999999937
11
326.3899999999999864
21
113.4599999999999937
0
LINE
8
BLACK
6
CONTINUOUS
10
326.3899999999999864
20
113.4599999999999937
11
326.3899999999999864
21
127.4499999999999886
0
LINE
8
BLACK
6
CONTINUOUS
10
138.539999999999992
20
89.4099999999999966
11
152.5300000000000011
21
89.4099999999999966
0
LINE
8
BLACK
6
CONTINUOUS
10
152.5300000000000011
20
89.4099999999999966
11
152.5300000000000011
21
75.4200000000000017
0
LINE
8
BLACK
6
CONTINUOUS
10
152.5300000000000011
20
75.4200000000000017
11
138.539999999999992
21
75.4200000000000017
0
LINE
8
BLACK
6
CONTINUOUS
10
138.539999999999992
20
75.4200000000000017
11
138.539999999999992
21
89.4099999999999966
0
LINE
8
BLACK
6
CONTINUOUS
10
270.7199999999999704
20
125.4499999999999886
11
279.2699999999999818
21
125.4499999999999886
0
LINE
8
BLACK
6
CONTINUOUS
10
279.2699999999999818
20
125.4499999999999886
11
279.2699999999999818
21
121.9099999999999966
0
LINE
8
BLACK
6
CONTINUOUS
10
279.2699999999999818
20
121.9099999999999966
11
270.7199999999999704
21
121.9099999999999966
0
LINE
8
BLACK
6
CONTINUOUS
10
270.7199999999999704
20
121.9099999999999966
11
270.7199999999999704
21
125.4499999999999886
0
LINE
8
BLACK
6
CONTINUOUS
10
157.5799999999999841
20
108.4499999999999886
11
171.5699999999999932
21
108.4499999999999886
0
LINE
8
BLACK
6
CONTINUOUS
10
171.5699999999999932
20
108.4499999999999886
11
171.5699999999999932
21
94.4599999999999937
0
LINE
8
BLACK
6
CONTINUOUS
10
171.5699999999999932
20
94.4599999999999937
11
157.5799999999999841
21
94.4599999999999937
0
LINE
8
BLACK
6
CONTINUOUS
10
157.5799999999999841
20
94.4599999999999937
11
157.5799999999999841
21
108.4499999999999886
0
LINE
8
BLACK
6
CONTINUOUS
10
288.2799999999999727
20
108.4099999999999966
11
302.2699999999999818
21
108.4099999999999966
0
LINE
8
BLACK
6
CONTINUOUS
10
302.2699999999999818
20
108.4099999999999966
11
302.2699999999999818
21
94.4200000000000017
0
LINE
8
BLACK
6
CONTINUOUS
10
302.2699999999999818
20
94.4200000000000017
11
288.2799999999999727
21
94.4200000000000017
0
LINE
8
BLACK
6
CONTINUOUS
10
288.2799999999999727
20
94.4200000000000017
11
288.2799999999999727
21
108.4099999999999966
0
LINE
8
BLACK
6
CONTINUOUS
10
195.6899999999999977
20
127.5099999999999909
11
209.6799999999999784
21
127.5099999999999909
0
LINE
8
BLACK
6
CONTINUOUS
10
209.6799999999999784
20
127.5099999999999909
11
209.6799999999999784
21
113.519999999999996
0
LINE
8
BLACK
6
CONTINUOUS
10
209.6799999999999784
20
113.519999999999996
11
195.6899999999999977
21
113.519999999999996
0
LINE
8
BLACK
6
CONTINUOUS
10
195.6899999999999977
20
113.519999999999996
11
195.6899999999999977
21
127.5099999999999909
0
LINE
8
BLACK
6
CONTINUOUS
10
195.6899999999999977
20
108.4599999999999937
11
209.6799999999999784
21
108.4599999999999937
0
LINE
8
BLACK
6
CONTINUOUS
10
209.6799999999999784
20
108.4599999999999937
11
209.6799999999999784
21
94.4699999999999989
0
LINE
8
BLACK
6
CONTINUOUS
10
209.6799999999999784
20
94.4699999999999989
11
195.6899999999999977
21
94.4699999999999989
0
LINE
8
BLACK
6
CONTINUOUS
10
195.6899999999999977
20
94.4699999999999989
11
195.6899999999999977
21
108.4599999999999937
0
LINE
8
BLACK
6
CONTINUOUS
10
218.6899999999999977
20
125.5
11
227.2399999999999807
21
125.5
0
LINE
8
BLACK
6
CONTINUOUS
10
227.2399999999999807
20
125.5
11
227.2399999999999807
21
121.9599999999999937
0
LINE
8
BLACK
6
CONTINUOUS
10
227.2399999999999807
20
121.9599999999999937
11
218.6899999999999977
21
121.9599999999999937
0
LINE
8
BLACK
6
CONTINUOUS
10
218.6899999999999977
20
121.9599999999999937
11
218.6899999999999977
21
125.5
0
CIRCLE
8
BLACK
10
193.1890479999999854
20
91.9299999999999926
40
1.0999999999999999
0
LINE
8
BLACK
6
CONTINUOUS
10
231.3400000000000034
20
120.0499999999999972
11
234.9399999999999977
21
120.0499999999999972
0
LINE
8
BLACK
6
CONTINUOUS
10
234.9399999999999977
20
120.0499999999999972
11
234.9399999999999977
21
110.9299999999999926
0
LINE
8
BLACK
6
CONTINUOUS
10
234.9399999999999977
20
110.9299999999999926
11
231.3400000000000034
21
110.9299999999999926
0
LINE
8
BLACK
6
CONTINUOUS
10
231.3400000000000034
20
110.9299999999999926
11
231.3400000000000034
21
120.0499999999999972
0
LINE
8
BLACK
6
CONTINUOUS
10
288.2799999999999727
20
146.5099999999999909
11
302.2699999999999818
21
146.5099999999999909
0
LINE
8
BLACK
6
CONTINUOUS
10
302.2699999999999818
20
146.5099999999999909
11
302.2699999999999818
21
132.5199999999999818
0
LINE
8
BLACK
6
CONTINUOUS
10
302.2699999999999818
20
132.5199999999999818
11
288.2799999999999727
21
132.5199999999999818
0
LINE
8
BLACK
6
CONTINUOUS
10
288.2799999999999727
20
132.5199999999999818
11
288.2799999999999727
21
146.5099999999999909
0
LINE
8
BLACK
6
CONTINUOUS
10
119.4899999999999949
20
127.5
11
133.4799999999999898
21
127.5
0
LINE
8
BLACK
6
CONTINUOUS
10
133.4799999999999898
20
127.5
11
133.4799999999999898
21
113.5099999999999909
0
LINE
8
BLACK
6
CONTINUOUS
10
133.4799999999999898
20
113.5099999999999909
11
119.4899999999999949
21
113.5099999999999909
0
LINE
8
BLACK
6
CONTINUOUS
10
119.4899999999999949
20
113.5099999999999909
11
119.4899999999999949
21
127.5
0
LINE
8
BLACK
6
CONTINUOUS
10
307.3299999999999841
20
89.3699999999999903
11
321.3199999999999932
21
89.3699999999999903
0
LINE
8
BLACK
6
CONTINUOUS
10
321.3199999999999932
20
89.3699999999999903
11
321.3199999999999932
21
75.3799999999999955
0
LINE
8
BLACK
6
CONTINUOUS
10
321.3199999999999932
20
75.3799999999999955
11
307.3299999999999841
21
75.3799999999999955
0
LINE
8
BLACK
6
CONTINUOUS
10
307.3299999999999841
20
75.3799999999999955
11
307.3299999999999841
21
89.3699999999999903
0
CIRCLE
8
BLACK
10
304.7899999999999636
20
130.0099999999999909
40
1.0999999999999999
0
LINE
8
BLACK
6
CONTINUOUS
10
217.1299999999999955
20
91.8999999999999915
11
231.1399999999999864
21
91.8999999999999915
0
LINE
8
BLACK
6
CONTINUOUS
10
231.1399999999999864
20
91.8999999999999915
11
231.1399999999999864
21
74.9200000000000017
0
LINE
8
BLACK
6
CONTINUOUS
10
231.1399999999999864
20
74.9200000000000017
11
217.1299999999999955
21
74.9200000000000017
0
LINE
8
BLACK
6
CONTINUOUS
10
217.1299999999999955
20
74.9200000000000017
11
217.1299999999999955
21
91.8999999999999915
0
LINE
8
BLACK
6
CONTINUOUS
10
119.4899999999999949
20
146.5499999999999829
11
133.4799999999999898
21
146.5499999999999829
0
LINE
8
BLACK
6
CONTINUOUS
10
133.4799999999999898
20
146.5499999999999829
11
133.4799999999999898
21
132.5600000000000023
0
LINE
8
BLACK
6
CONTINUOUS
10
133.4799999999999898
20
132.5600000000000023
11
119.4899999999999949
21
132.5600000000000023
0
LINE
8
BLACK
6
CONTINUOUS
10
119.4899999999999949
20
132.5600000000000023
11
119.4899999999999949
21
146.5499999999999829
0
LINE
8
BLACK
6
CONTINUOUS
10
116.9599999999999937
20
149.6899999999999977
11
234.9599999999999795
21
149.6899999999999977
0
LINE
8
BLACK
6
CONTINUOUS
10
234.9599999999999795
20
149.6899999999999977
11
234.9599999999999795
21
72.8900000000000006
0
LINE
8
BLACK
6
CONTINUOUS
10
234.9599999999999795
20
72.8900000000000006
11
116.9599999999999937
21
72.8900000000000006
0
LINE
8
BLACK
6
CONTINUOUS
10
116.9599999999999937
20
72.8900000000000006
11
116.9599999999999937
21
149.6899999999999977
0
CIRCLE
8
BLACK
10
342.8999999999999773
20
91.8999999999999915
40
1.0999999999999999
0
CIRCLE
8
BLACK
10
155.0790480000000002
20
130.0300000000000011
40
1.0999999999999999
0
LINE
8
BLACK
6
CONTINUOUS
10
345.4300000000000068
20
108.4099999999999966
11
359.4199999999999591
21
108.4099999999999966
0
LINE
8
BLACK
6
CONTINUOUS
10
359.4199999999999591
20
108.4099999999999966
11
359.4199999999999591
21
94.4200000000000017
0
LINE
8
BLACK
6
CONTINUOUS
10
359.4199999999999591
20
94.4200000000000017
11
345.4300000000000068
21
94.4200000000000017
0
LINE
8
BLACK
6
CONTINUOUS
10
345.4300000000000068
20
94.4200000000000017
11
345.4300000000000068
21
108.4099999999999966
0
LINE
8
BLACK
6
CONTINUOUS
10
176.6399999999999864
20
146.5699999999999932
11
190.6299999999999955
21
146.5699999999999932
0
LINE
8
BLACK
6
CONTINUOUS
10
190.6299999999999955
20
146.5699999999999932
11
190.6299999999999955
21
132.5799999999999841
0
LINE
8
BLACK
6
CONTINUOUS
10
190.6299999999999955
20
132.5799999999999841
11
176.6399999999999864
21
132.5799999999999841
0
LINE
8
BLACK
6
CONTINUOUS
10
176.6399999999999864
20
132.5799999999999841
11
176.6399999999999864
21
146.5699999999999932
0
LINE
8
BLACK
6
CONTINUOUS
10
326.3899999999999864
20
108.3999999999999915
11
340.3799999999999955
21
108.3999999999999915
0
LINE
8
BLACK
6
CONTINUOUS
10
340.3799999999999955
20
108.3999999999999915
11
340.3799999999999955
21
94.4099999999999966
0
LINE
8
BLACK
6
CONTINUOUS
10
340.3799999999999955
20
94.4099999999999966
11
326.3899999999999864
21
94.4099999999999966
0
LINE
8
BLACK
6
CONTINUOUS
10
326.3899999999999864
20
94.4099999999999966
11
326.3899999999999864
21
108.3999999999999915
0
LINE
8
BLACK
6
CONTINUOUS
10
266.8199999999999932
20
91.8499999999999943
11
280.8299999999999841
21
91.8499999999999943
0
LINE
8
BLACK
6
CONTINUOUS
10
280.8299999999999841
20
91.8499999999999943
11
280.8299999999999841
21
74.8699999999999903
0
LINE
8
BLACK
6
CONTINUOUS
10
280.8299999999999841
20
74.8699999999999903
11
266.8199999999999932
21
74.8699999999999903
0
LINE
8
BLACK
6
CONTINUOUS
10
266.8199999999999932
20
74.8699999999999903
11
266.8199999999999932
21
91.8499999999999943
0
CIRCLE
8
BLACK
10
193.1890479999999854
20
130.0499999999999829
40
1.0999999999999999
0
LINE
8
BLACK
6
CONTINUOUS
10
345.4300000000000068
20
127.4599999999999937
11
359.4199999999999591
21
127.4599999999999937
0
LINE
8
BLACK
6
CONTINUOUS
10
359.4199999999999591
20
127.4599999999999937
11
359.4199999999999591
21
113.4699999999999989
0
LINE
8
BLACK
6
CONTINUOUS
10
359.4199999999999591
20
113.4699999999999989
11
345.4300000000000068
21
113.4699999999999989
0
LINE
8
BLACK
6
CONTINUOUS
10
345.4300000000000068
20
113.4699999999999989
11
345.4300000000000068
21
127.4599999999999937
0
LINE
8
BLACK
6
CONTINUOUS
10
364.4799999999999613
20
146.5
11
378.4699999999999704
21
146.5
0
LINE
8
BLACK
6
CONTINUOUS
10
378.4699999999999704
20
146.5
11
378.4699999999999704
21
132.5099999999999909
0
LINE
8
BLACK
6
CONTINUOUS
10
378.4699999999999704
20
132.5099999999999909
11
364.4799999999999613
21
132.5099999999999909
0
LINE
8
BLACK
6
CONTINUOUS
10
364.4799999999999613
20
132.5099999999999909
11
364.4799999999999613
21
146.5
0
LINE
8
BLACK
6
CONTINUOUS
10
119.4899999999999949
20
108.4499999999999886
11
133.4799999999999898
21
108.4499999999999886
0
LINE
8
BLACK
6
CONTINUOUS
10
133.4799999999999898
20
108.4499999999999886
11
133.4799999999999898
21
94.4599999999999937
0
LINE
8
BLACK
6
CONTINUOUS
10
133.4799999999999898
20
94.4599999999999937
11
119.4899999999999949
21
94.4599999999999937
0
LINE
8
BLACK
6
CONTINUOUS
10
119.4899999999999949
20
94.4599999999999937
11
119.4899999999999949
21
108.4499999999999886
0
LINE
8
BLACK
6
CONTINUOUS
10
214.8899999999999864
20
98.5099999999999909
11
233.6799999999999784
21
98.5099999999999909
0
LINE
8
BLACK
6
CONTINUOUS
10
233.6799999999999784
20
98.5099999999999909
11
233.6799999999999784
21
94.9399999999999977
0
LINE
8
BLACK
6
CONTINUOUS
10
233.6799999999999784
20
94.9399999999999977
11
214.8899999999999864
21
94.9399999999999977
0
LINE
8
BLACK
6
CONTINUOUS
10
214.8899999999999864
20
94.9399999999999977
11
214.8899999999999864
21
98.5099999999999909
0
LINE
8
BLACK
6
CONTINUOUS
10
364.4799999999999613
20
89.3499999999999943
11
378.4699999999999704
21
89.3499999999999943
0
LINE
8
BLACK
6
CONTINUOUS
10
378.4699999999999704
20
89.3499999999999943
11
378.4699999999999704
21
75.3599999999999994
0
LINE
8
BLACK
6
CONTINUOUS
10
378.4699999999999704
20
75.3599999999999994
11
364.4799999999999613
21
75.3599999999999994
0
LINE
8
BLACK
6
CONTINUOUS
10
364.4799999999999613
20
75.3599999999999994
11
364.4799999999999613
21
89.3499999999999943
0
LINE
8
BLACK
6
CONTINUOUS
10
326.3899999999999864
20
89.3499999999999943
11
340.3799999999999955
21
89.3499999999999943
0
LINE
8
BLACK
6
CONTINUOUS
10
340.3799999999999955
20
89.3499999999999943
11
340.3799999999999955
21
75.3599999999999994
0
LINE
8
BLACK
6
CONTINUOUS
10
340.3799999999999955
20
75.3599999999999994
11
326.3899999999999864
21
75.3599999999999994
0
LINE
8
BLACK
6
CONTINUOUS
10
326.3899999999999864
20
75.3599999999999994
11
326.3899999999999864
21
89.3499999999999943
0
LINE
8
BLACK
6
CONTINUOUS
10
214.5799999999999841
20
119.9799999999999898
11
228.2099999999999795
21
119.9799999999999898
0
LINE
8
BLACK
6
CONTINUOUS
10
228.2099999999999795
20
119.9799999999999898
11
228.2099999999999795
21
116.9299999999999926
0
LINE
8
BLACK
6
CONTINUOUS
10
228.2099999999999795
20
116.9299999999999926
11
214.5799999999999841
21
116.9299999999999926
0
LINE
8
BLACK
6
CONTINUOUS
10
214.5799999999999841
20
116.9299999999999926
11
214.5799999999999841
21
119.9799999999999898
0
LINE
8
BLACK
6
CONTINUOUS
10
176.6399999999999864
20
108.4699999999999989
11
190.6299999999999955
21
108.4699999999999989
0
LINE
8
BLACK
6
CONTINUOUS
10
190.6299999999999955
20
108.4699999999999989
11
190.6299999999999955
21
94.4799999999999898
0
LINE
8
BLACK
6
CONTINUOUS
10
190.6299999999999955
20
94.4799999999999898
11
176.6399999999999864
21
94.4799999999999898
0
LINE
8
BLACK
6
CONTINUOUS
10
176.6399999999999864
20
94.4799999999999898
11
176.6399999999999864
21
108.4699999999999989
0
LINE
8
BLACK
6
CONTINUOUS
10
176.6399999999999864
20
89.4200000000000017
11
190.6299999999999955
21
89.4200000000000017
0
LINE
8
BLACK
6
CONTINUOUS
10
190.6299999999999955
20
89.4200000000000017
11
190.6299999999999955
21
75.4299999999999926
0
LINE
8
BLACK
6
CONTINUOUS
10
190.6299999999999955
20
75.4299999999999926
11
176.6399999999999864
21
75.4299999999999926
0
LINE
8
BLACK
6
CONTINUOUS
10
176.6399999999999864
20
75.4299999999999926
11
176.6399999999999864
21
89.4200000000000017
0
LINE
8
BLACK
6
CONTINUOUS
10
364.4799999999999613
20
127.4499999999999886
11
378.4699999999999704
21
127.4499999999999886
0
LINE
8
BLACK
6
CONTINUOUS
10
378.4699999999999704
20
127.4499999999999886
11
378.4699999999999704
21
113.4599999999999937
0
LINE
8
BLACK
6
CONTINUOUS
10
378.4699999999999704
20
113.4599999999999937
11
364.4799999999999613
21
113.4599999999999937
0
LINE
8
BLACK
6
CONTINUOUS
10
364.4799999999999613
20
113.4599999999999937
11
364.4799999999999613
21
127.4499999999999886
0
LINE
8
BLACK
6
CONTINUOUS
10
345.4300000000000068
20
146.5099999999999909
11
359.4199999999999591
21
146.5099999999999909
0
LINE
8
BLACK
6
CONTINUOUS
10
359.4199999999999591
20
146.5099999999999909
11
359.4199999999999591
21
132.5199999999999818
0
LINE
8
BLACK
6
CONTINUOUS
10
359.4199999999999591
20
132.5199999999999818
11
345.4300000000000068
21
132.5199999999999818
0
LINE
8
BLACK
6
CONTINUOUS
10
345.4300000000000068
20
132.5199999999999818
11
345.4300000000000068
21
146.5099999999999909
0
LINE
8
BLACK
6
CONTINUOUS
10
307.3299999999999841
20
108.4200000000000017
11
321.3199999999999932
21
108.4200000000000017
0
LINE
8
BLACK
6
CONTINUOUS
10
321.3199999999999932
20
108.4200000000000017
11
321.3199999999999932
21
94.4299999999999926
0
LINE
8
BLACK
6
CONTINUOUS
10
321.3199999999999932
20
94.4299999999999926
11
307.3299999999999841
21
94.4299999999999926
0
LINE
8
BLACK
6
CONTINUOUS
10
307.3299999999999841
20
94.4299999999999926
11
307.3299999999999841
21
108.4200000000000017
0
LINE
8
BLACK
6
CONTINUOUS
10
176.6399999999999864
20
127.519999999999996
11
190.6299999999999955
21
127.519999999999996
0
LINE
8
BLACK
6
CONTINUOUS
10
190.6299999999999955
20
127.519999999999996
11
190.6299999999999955
21
113.5300000000000011
0
LINE
8
BLACK
6
CONTINUOUS
10
190.6299999999999955
20
113.5300000000000011
11
176.6399999999999864
21
113.5300000000000011
0
LINE
8
BLACK
6
CONTINUOUS
10
176.6399999999999864
20
113.5300000000000011
11
176.6399999999999864
21
127.519999999999996
0
CIRCLE
8
BLACK
10
155.0790480000000002
20
91.9399999999999977
40
1.0999999999999999
  0
ENDSEC
  0
EOF
